<svg width="118" height="32" viewBox="0 0 118 32" fill="none" xmlns="http://www.w3.org/2000/svg">
<path d="M10.2952 1.96707C12.2556 1.13756 14.314 0.720215 16.4704 0.720215C18.6268 0.720215 20.6852 1.1324 22.6455 1.96707C24.6059 2.79659 26.298 3.90949 27.7167 5.30576C29.1353 6.70203 30.2651 8.36621 31.106 10.2932C31.9418 12.2201 32.3648 14.2501 32.3648 16.3729C32.3648 17.6712 32.2255 18.9129 31.9469 20.1083C31.6683 21.3036 31.2659 22.3959 30.7346 23.3954C30.2032 24.3898 29.4861 25.1884 28.5937 25.7861C27.696 26.3838 26.6901 26.6826 25.5654 26.6826C24.2396 26.6826 23.1305 26.291 22.2431 25.513C21.3558 24.735 20.8451 23.7561 20.711 22.5762C19.3851 23.653 17.853 24.194 16.1196 24.194C14.0509 24.194 12.2814 23.4315 10.8163 21.9013C9.35118 20.3762 8.61863 18.5317 8.61863 16.378C8.61863 14.2244 9.35118 12.3798 10.8163 10.8445C12.2814 9.30909 14.0457 8.5414 16.1196 8.5414C17.8065 8.5414 19.3335 9.07722 20.6852 10.154C20.7419 9.74702 20.9276 9.40697 21.2423 9.12875C21.557 8.85052 21.9233 8.71141 22.3463 8.71141C22.8106 8.71141 23.2078 8.87629 23.538 9.20089C23.8682 9.52548 24.0281 9.92736 24.0281 10.3911V21.9373C24.0281 22.9008 24.5388 23.38 25.5603 23.38C26.3031 23.38 26.9532 23.0296 27.5051 22.3186C28.0571 21.6127 28.4699 20.742 28.7278 19.6961C28.9909 18.6553 29.1199 17.5476 29.1199 16.3677C29.1199 14.0853 28.5524 11.9677 27.4278 10.0149C26.298 8.06738 24.7606 6.52685 22.8158 5.3985C20.8709 4.27015 18.7558 3.70855 16.4652 3.70855C14.7473 3.70855 13.1017 4.04344 11.5334 4.71324C9.96509 5.38303 8.61863 6.27954 7.48884 7.40789C6.35906 8.53624 5.46141 9.88098 4.79077 11.4473C4.12012 13.0084 3.78479 14.652 3.78479 16.3677C3.78479 18.6553 4.34711 20.7678 5.47689 22.7102C6.60668 24.6526 8.14917 26.188 10.0992 27.3163C12.0544 28.4447 14.1747 29.0063 16.4601 29.0063C18.0748 29.0063 19.6792 28.6868 21.2681 28.0479C21.459 27.9758 21.6447 27.9397 21.8356 27.9397C22.2586 27.9397 22.6197 28.0943 22.9189 28.3983C23.2182 28.7023 23.3678 29.0629 23.3678 29.47C23.3678 29.7894 23.2801 30.0728 23.1047 30.3201C22.9293 30.5674 22.6971 30.7477 22.4082 30.8662C20.4994 31.6236 18.5184 31.9997 16.4601 31.9997C14.3037 31.9997 12.2453 31.5876 10.2849 30.7683C8.32457 29.9491 6.63247 28.8362 5.21379 27.44C3.79511 26.0437 2.66532 24.3795 1.82443 22.4526C0.983539 20.5256 0.565674 18.4956 0.565674 16.3729C0.565674 14.2501 0.983539 12.2201 1.82443 10.2932C2.66016 8.36621 3.78995 6.70203 5.21379 5.30576C6.63247 3.90949 8.32457 2.79659 10.2849 1.96707H10.2952ZM13.3029 19.6961C14.1799 20.6132 15.2323 21.0717 16.4704 21.0717C17.7085 21.0717 18.7661 20.6132 19.6379 19.6961C20.5149 18.779 20.9483 17.6712 20.9483 16.378C20.9483 15.0848 20.5098 13.9771 19.6379 13.0599C18.7609 12.1428 17.7085 11.6843 16.4704 11.6843C15.2323 11.6843 14.1747 12.1428 13.3029 13.0599C12.4259 13.9771 11.9925 15.0848 11.9925 16.378C11.9925 17.6712 12.431 18.779 13.3029 19.6961Z" fill="#F7F7F8"/>
<path d="M59.2733 7.52148C61.4813 7.53179 63.323 8.25826 64.7881 9.69575C66.2533 11.1332 66.991 12.8902 66.991 14.9562V23.0917C66.991 23.6739 66.7846 24.1634 66.3771 24.5652C65.9695 24.9671 65.4743 25.1784 64.8913 25.1887C64.3084 25.1784 63.8131 24.9671 63.4056 24.5652C62.998 24.1634 62.7917 23.6687 62.7917 23.0917V15.997C62.7917 14.745 62.3635 13.6836 61.5123 12.8077C60.6611 11.9318 59.6293 11.4887 58.4221 11.4784C57.215 11.4887 56.1832 11.9318 55.332 12.8077C54.4808 13.6836 54.0526 14.745 54.0526 15.997V23.1071C54.0526 23.6894 53.8462 24.1788 53.4387 24.5807C53.0311 24.9826 52.5359 25.1835 51.9529 25.1835C51.37 25.1835 50.8799 24.9826 50.4672 24.5807C50.0597 24.1788 49.8533 23.6842 49.8533 23.1071V16.0125C49.8533 14.7605 49.4251 13.6939 48.5739 12.8077C47.7227 11.9215 46.6909 11.4784 45.4838 11.4784C44.2766 11.4784 43.2448 11.9215 42.3936 12.8077C41.5424 13.6939 41.1142 14.7656 41.1142 16.0125V23.1071C41.1142 23.6894 40.9079 24.184 40.5003 24.591C40.0928 24.998 39.5975 25.2041 39.0146 25.2041C38.4316 25.2041 37.9364 24.998 37.5288 24.591C37.1213 24.184 36.9149 23.6894 36.9149 23.1071V9.97398C36.9149 9.39177 37.1213 8.89715 37.5288 8.49012C37.9364 8.08309 38.4316 7.87699 39.0146 7.87699C39.5975 7.87699 40.0515 8.06247 40.4487 8.43859C40.846 8.81471 41.0678 9.26811 41.1142 9.80394C41.8107 9.08778 42.6258 8.53133 43.5647 8.13461C44.5036 7.73788 45.4992 7.53694 46.5465 7.53694C47.7743 7.53694 48.9195 7.80486 49.9719 8.3407C51.0244 8.87653 51.8962 9.60815 52.5926 10.5407C53.3768 9.60815 54.3621 8.87139 55.5487 8.3304C56.7352 7.78941 57.9785 7.52148 59.2888 7.52148H59.2733Z" fill="#F7F7F8"/>
<path d="M79.2535 7.52148C79.8571 7.52148 80.3678 7.72757 80.7805 8.14491C81.1984 8.56224 81.4047 9.06718 81.4047 9.66999C81.4047 10.2058 81.2293 10.6747 80.8734 11.0766C80.5226 11.4784 80.0892 11.7206 79.5734 11.803C78.2888 11.9988 77.2106 12.5707 76.3439 13.5239C75.4772 14.4771 75.0439 15.7755 75.0439 17.4139V23.1123C75.0439 23.6945 74.8375 24.1891 74.43 24.5961C74.0224 25.0032 73.5272 25.2093 72.9442 25.2093C72.3613 25.2093 71.866 25.0032 71.4585 24.5961C71.051 24.1891 70.8446 23.6945 70.8446 23.1123V9.97912C70.8446 9.39691 71.051 8.90229 71.4585 8.49526C71.866 8.08823 72.3613 7.88215 72.9442 7.88215C73.455 7.88215 73.9038 8.04187 74.2907 8.36131C74.6776 8.68075 74.9149 9.08263 75.0078 9.5721C75.632 8.94867 76.3181 8.44889 77.0662 8.07792C77.809 7.70696 78.5364 7.52148 79.2432 7.52148H79.2535Z" fill="#F7F7F8"/>
<path d="M100.523 21.9166C100.864 22.3854 100.993 22.9007 100.91 23.4777C100.823 24.0496 100.549 24.5082 100.08 24.8534C99.6104 25.1934 99.0945 25.3222 98.5167 25.2346C97.9389 25.1522 97.4849 24.874 97.1393 24.4103L92.4602 18.0678L89.4732 20.7779V23.1119C89.4732 23.6941 89.2669 24.1887 88.8593 24.5958C88.4518 25.0028 87.9565 25.2089 87.3736 25.2089C86.7906 25.2089 86.2954 25.0028 85.8878 24.5958C85.4803 24.1887 85.2739 23.6941 85.2739 23.1119V2.84796C85.2739 2.26575 85.4803 1.77113 85.8878 1.3641C86.2954 0.951917 86.7906 0.750977 87.3736 0.750977C87.9565 0.750977 88.4518 0.957069 88.8593 1.3641C89.2669 1.77113 89.4732 2.26575 89.4732 2.84796V15.1104L96.9381 8.31968C97.3714 7.93326 97.8718 7.75293 98.4496 7.77354C99.0222 7.79415 99.5123 8.02086 99.9096 8.45365C100.296 8.88644 100.477 9.39136 100.456 9.96326C100.436 10.5352 100.204 11.0246 99.7754 11.4214L95.5916 15.2238L100.529 21.9114L100.523 21.9166Z" fill="#F7F7F8"/>
<path d="M114.968 21.3396C115.582 21.1798 116.144 21.2983 116.66 21.6951C117.176 22.0918 117.429 22.6122 117.429 23.2459C117.429 23.689 117.295 24.0857 117.027 24.4412C116.758 24.7916 116.413 25.0338 115.995 25.1574C114.798 25.5232 113.601 25.6572 112.399 25.5644C111.197 25.4717 110.145 25.1419 109.232 24.5752C107.514 23.4932 106.652 21.829 106.652 19.5775V12.0036H104.656C104.109 12.0036 103.645 11.813 103.258 11.4214C102.871 11.035 102.675 10.5713 102.675 10.0251C102.675 9.47899 102.866 9.01529 103.258 8.62887C103.645 8.24245 104.109 8.04666 104.656 8.04666H106.652V4.87285C106.652 4.29579 106.859 3.80118 107.266 3.389C107.674 2.98197 108.169 2.77588 108.752 2.77588C109.335 2.77588 109.83 2.98197 110.238 3.389C110.645 3.80118 110.851 4.29579 110.851 4.87285V8.04666H114.354C114.901 8.04666 115.365 8.23729 115.752 8.62887C116.139 9.01529 116.335 9.47899 116.335 10.0251C116.335 10.5713 116.144 11.035 115.752 11.4214C115.365 11.8078 114.901 12.0036 114.354 12.0036H110.851V19.0983C110.851 20.1442 111.135 20.8398 111.708 21.1798C112.461 21.6332 113.544 21.6848 114.968 21.3344V21.3396Z" fill="#F7F7F8"/>
</svg>
