<svg width="176" height="170" viewBox="0 0 176 170" fill="none" xmlns="http://www.w3.org/2000/svg">
<path d="M165.96 29.9915C165.852 29.8266 165.733 29.672 165.599 29.5226L144.319 6.31155C140.641 2.30307 135.41 0 129.967 0H46.0326C40.5901 0 35.359 2.29792 31.6807 6.31155L10.4057 29.5226C10.2715 29.6669 10.158 29.8214 10.0549 29.9811C2.78089 37.0604 -0.654897 47.2104 0.846327 57.3243C1.49118 61.6625 3.12654 65.8977 5.57699 69.6537V150.483C5.57699 161.2 14.3058 169.917 25.0361 169.917H150.958C161.689 169.917 170.417 161.2 170.417 150.483V69.6537C172.873 65.8926 174.508 61.6625 175.153 57.3243C176.655 47.2155 173.224 37.0707 165.96 29.9915ZM15.6006 34.6285C15.8844 34.3709 16.1113 34.0669 16.2919 33.7423L36.9892 11.165C39.3055 8.63523 42.602 7.18744 46.0326 7.18744H129.967C133.398 7.18744 136.694 8.63523 139.01 11.165L159.677 33.7011C159.862 34.0411 160.105 34.3554 160.399 34.6234C166.471 40.1878 169.252 48.076 168.039 56.263C167.492 59.9417 166.017 63.5328 163.763 66.6603C163.67 66.7942 163.572 66.9179 163.474 67.0467C163.365 67.1909 163.257 67.3404 163.149 67.4846C162.963 67.7216 162.767 67.9535 162.561 68.2008L162.504 68.2729C162.359 68.443 162.22 68.6181 162.07 68.783C161.709 69.1849 161.338 69.5713 160.951 69.9423L160.781 70.102C160.703 70.1793 160.621 70.2514 160.543 70.3235C160.234 70.6121 159.919 70.8903 159.599 71.1634C159.439 71.2973 159.28 71.4313 159.12 71.5601C158.728 71.8692 158.33 72.1681 157.918 72.4566C157.861 72.4926 157.809 72.5339 157.758 72.5751C157.304 72.8894 156.834 73.1882 156.36 73.4716C156.076 73.6416 155.787 73.7962 155.498 73.9507C155.312 74.0538 155.127 74.1517 154.936 74.2444C154.59 74.4196 154.245 74.5896 153.889 74.7494C153.852 74.7648 153.816 74.7803 153.78 74.7957C152.537 75.347 151.247 75.7901 149.921 76.1302C149.787 76.1611 149.653 76.1971 149.514 76.2281C149.127 76.3208 148.735 76.4084 148.343 76.4805C147.863 76.5681 147.378 76.6454 146.878 76.7072C145.892 76.8257 144.907 76.8876 143.942 76.8876C136.204 76.8876 128.853 73.1624 124.272 66.9179C122.363 64.3211 119.262 62.7703 115.971 62.7703C113.092 62.7703 110.358 63.9605 108.444 65.9956C108.171 66.2893 107.913 66.5933 107.676 66.9179C107.144 67.6443 106.572 68.3296 105.968 68.9839C105.767 69.2055 105.555 69.4167 105.349 69.628C104.993 69.9886 104.627 70.3338 104.25 70.6687C102.476 72.2505 100.484 73.5592 98.3433 74.5639C97.7139 74.8576 97.0742 75.1358 96.4191 75.3779C93.7519 76.362 90.9043 76.8876 88.005 76.8876C84.6208 76.8876 81.3088 76.1714 78.2702 74.8472C74.365 73.1418 70.9086 70.4266 68.3343 66.9179C67.9629 66.413 67.5347 65.9596 67.0807 65.5371C65.2029 63.7904 62.6854 62.7703 60.0337 62.7703C56.7424 62.7703 53.6419 64.3211 51.7383 66.9179C47.1573 73.1573 39.8008 76.8876 32.0676 76.8876C31.1081 76.8876 30.1228 76.8257 29.1219 76.7072C29.0446 76.6969 28.9672 76.6815 28.8846 76.6712C28.4771 76.6196 28.0747 76.5578 27.6723 76.4857C27.2751 76.4135 26.883 76.326 26.4909 76.2332C26.3568 76.2023 26.2175 76.1662 26.0834 76.1353C24.773 75.8004 23.4988 75.3625 22.271 74.8215C22.2194 74.7957 22.1627 74.7751 22.1111 74.7545C21.7654 74.5999 21.425 74.4299 21.0845 74.2599C20.8936 74.162 20.7079 74.0641 20.5222 73.961C20.2281 73.8013 19.9392 73.6468 19.6503 73.4767C19.1809 73.1934 18.7114 72.8997 18.2626 72.5854C18.2007 72.5442 18.1439 72.4978 18.082 72.4566C17.6796 72.1732 17.2876 71.8795 16.9058 71.5755C16.7407 71.4416 16.5756 71.3076 16.4106 71.1685C16.0856 70.8954 15.776 70.6172 15.4716 70.339C15.4097 70.2823 15.3478 70.2256 15.2859 70.169L15.0589 69.9577C14.672 69.5816 14.2954 69.19 13.9395 68.7933C13.7899 68.6284 13.6506 68.4481 13.501 68.2781L13.4391 68.2059C13.243 67.9741 13.047 67.7371 12.8613 67.5001C12.7839 67.4022 12.7065 67.294 12.6343 67.1961C12.5053 67.0261 12.3712 66.8509 12.2422 66.6757C9.99296 63.5534 8.51753 59.9623 7.97069 56.2836C6.7532 48.0966 9.53898 40.2084 15.6109 34.644L15.6006 34.6285ZM65.9303 113.861H116.146C118.561 113.861 120.057 114.516 120.057 117.767V121.518C120.057 124.769 118.561 125.423 116.146 125.423H59.848C56.8507 125.423 55.9376 124.511 55.9376 121.518V117.767C55.9376 114.773 56.8507 113.861 59.848 113.861H65.9303ZM69.8459 106.674L73.8956 102.609L77.9659 106.674H69.8459ZM97.9874 106.674L102.047 102.609L106.113 106.674H97.9874ZM72.8741 162.73C63.5933 162.73 61.4576 160.597 61.4576 151.328V132.6H114.315V151.328C114.315 160.597 112.179 162.73 102.899 162.73H72.8741ZM163.226 150.483C163.226 157.237 157.727 162.73 150.964 162.73H119.247C120.789 159.881 121.512 156.125 121.512 151.328V131.513C125.144 129.844 127.253 126.319 127.253 121.512V117.762C127.253 110.919 122.997 106.674 116.152 106.674H114.439C114.196 105.278 113.546 103.933 112.468 102.851L107.139 97.5285C104.338 94.7308 99.7826 94.7308 96.9865 97.5285L87.9895 106.514L78.9925 97.5285C76.1912 94.7308 71.636 94.7308 68.8399 97.5285L63.5108 102.851C62.4274 103.933 61.7826 105.272 61.5401 106.674H59.8635C52.9094 106.674 48.7617 110.821 48.7617 117.762V121.512C48.7617 126.319 50.753 129.777 54.2765 131.456V151.328C54.2765 156.125 54.9987 159.881 56.5412 162.73H25.0516C18.2884 162.73 12.7891 157.237 12.7891 150.483V77.4749C12.9851 77.6295 13.1966 77.7583 13.3978 77.9077C13.7744 78.1859 14.1561 78.459 14.5431 78.7218C14.8216 78.9072 15.1054 79.0876 15.3891 79.2627C15.6213 79.407 15.8431 79.5667 16.0752 79.7007L16.6118 80.0047C16.7201 80.0665 16.8336 80.118 16.9419 80.1799C17.0915 80.2623 17.2463 80.3396 17.3959 80.422C17.6435 80.5508 17.8911 80.6899 18.1388 80.8136L18.2935 80.8909C18.4483 80.9682 18.5979 81.0454 18.7475 81.1124C18.9229 81.1949 19.1086 81.2618 19.2892 81.3443C19.4078 81.3958 19.5213 81.4422 19.64 81.4937C20.0063 81.6534 20.3674 81.8183 20.744 81.9677C20.94 82.045 21.1412 82.112 21.3424 82.1841L21.5591 82.2562C21.6261 82.2768 21.6932 82.2974 21.7551 82.3232C21.817 82.3438 21.8841 82.3644 21.946 82.385C22.2452 82.4881 22.5496 82.5911 22.854 82.689C23.2048 82.7972 23.5607 82.9003 23.9218 82.993C24.0199 83.0188 24.1179 83.0394 24.2107 83.0651C24.2984 83.0857 24.3861 83.1064 24.4738 83.127C24.6853 83.1785 24.8969 83.2352 25.1135 83.2815L25.3405 83.3331C25.6088 83.3949 25.877 83.4567 26.1556 83.5082C26.3104 83.5392 26.4703 83.5546 26.6302 83.5804C26.8521 83.6216 27.0739 83.6473 27.2957 83.6834C27.6207 83.7349 27.9457 83.7968 28.2707 83.8328C28.5235 83.8637 28.7711 83.874 29.0239 83.8998C29.2612 83.9256 29.5037 83.9462 29.741 83.9668C30.52 84.0235 31.299 84.0647 32.0676 84.0647C42.0861 84.0647 51.6093 79.2421 57.542 71.1582C57.6813 70.9676 57.8464 70.7924 58.027 70.643C58.5686 70.1947 59.2702 69.9474 60.0389 69.9474C61.0603 69.9474 61.9683 70.3905 62.5358 71.1582C68.4684 79.237 77.9865 84.0647 88.0101 84.0647C94.8508 84.0647 101.454 81.8131 106.845 77.8201C109.352 75.9601 111.602 73.7241 113.485 71.1582C113.706 70.8542 113.995 70.6172 114.31 70.4266C114.795 70.1277 115.362 69.9474 115.976 69.9474C116.998 69.9474 117.906 70.3905 118.473 71.1582C124.406 79.237 133.929 84.0647 143.947 84.0647C144.716 84.0647 145.495 84.0235 146.274 83.9668C146.517 83.9513 146.754 83.9256 146.991 83.8998C147.239 83.874 147.486 83.8637 147.729 83.8328C148.054 83.7968 148.379 83.7349 148.699 83.6834C148.926 83.6473 149.153 83.6164 149.38 83.5804C149.54 83.5546 149.7 83.5392 149.854 83.5082C150.128 83.4567 150.396 83.3949 150.664 83.3331L150.896 83.2815C151.108 83.2352 151.319 83.1785 151.531 83.127C151.619 83.1064 151.712 83.0857 151.799 83.06C151.897 83.0342 151.99 83.0136 152.088 82.9879C152.444 82.8951 152.8 82.7921 153.156 82.6839C153.466 82.5911 153.765 82.4829 154.069 82.3799C154.131 82.3593 154.188 82.3387 154.25 82.3181C154.317 82.2974 154.384 82.2768 154.446 82.2511L154.662 82.1789C154.864 82.112 155.07 82.0398 155.271 81.9626C155.653 81.8183 156.019 81.6483 156.391 81.4834C156.499 81.437 156.607 81.3958 156.71 81.3443C156.891 81.2618 157.082 81.1949 157.257 81.1124C157.412 81.0403 157.567 80.963 157.722 80.8857L157.876 80.8084C158.196 80.6487 158.521 80.4787 158.857 80.3035C158.893 80.2829 158.934 80.2623 158.97 80.2417C159.14 80.1489 159.305 80.0613 159.486 79.9583C159.641 79.8707 159.795 79.7831 159.945 79.6955C160.177 79.5564 160.399 79.4019 160.626 79.2576C160.915 79.0773 161.199 78.8969 161.482 78.7115C161.864 78.4538 162.241 78.1859 162.612 77.9129C162.819 77.7634 163.035 77.6295 163.236 77.4698V150.478L163.226 150.483Z" fill="#F7F7F8"/>
</svg>
