<svg width="237" height="196" viewBox="0 0 237 196" fill="none" xmlns="http://www.w3.org/2000/svg">
<path d="M78.1447 171.163C79.769 170.477 81.4745 170.132 83.2612 170.132C85.0479 170.132 86.7534 170.472 88.3777 171.163C90.002 171.849 91.4041 172.769 92.5795 173.924C93.755 175.079 94.6911 176.455 95.3879 178.048C96.0803 179.642 96.4308 181.321 96.4308 183.076C96.4308 184.15 96.3154 185.177 96.0846 186.166C95.8538 187.154 95.5204 188.057 95.0801 188.884C94.6398 189.706 94.0457 190.367 93.3062 190.861C92.5624 191.355 91.7289 191.603 90.7971 191.603C89.6986 191.603 88.7795 191.279 88.0443 190.635C87.3091 189.992 86.8859 189.182 86.7748 188.207C85.6763 189.097 84.4068 189.545 82.9705 189.545C81.2565 189.545 79.7903 188.914 78.5764 187.648C77.3624 186.387 76.7555 184.862 76.7555 183.081C76.7555 181.3 77.3624 179.774 78.5764 178.504C79.7903 177.235 81.2522 176.6 82.9705 176.6C84.3683 176.6 85.6335 177.043 86.7534 177.933C86.8005 177.597 86.9543 177.316 87.2151 177.085C87.4758 176.855 87.7793 176.74 88.1298 176.74C88.5145 176.74 88.8437 176.877 89.1172 177.145C89.3908 177.414 89.5233 177.746 89.5233 178.129V187.678C89.5233 188.475 89.9465 188.871 90.7928 188.871C91.4083 188.871 91.9469 188.582 92.4043 187.994C92.8617 187.41 93.2036 186.69 93.4173 185.825C93.6353 184.964 93.7422 184.048 93.7422 183.072C93.7422 181.185 93.272 179.433 92.3402 177.818C91.4041 176.208 90.1303 174.934 88.5188 174.001C86.9073 173.067 85.1548 172.603 83.2569 172.603C81.8335 172.603 80.47 172.88 79.1705 173.434C77.8711 173.988 76.7555 174.729 75.8193 175.662C74.8832 176.595 74.1395 177.708 73.5838 179.003C73.0281 180.294 72.7503 181.653 72.7503 183.072C72.7503 184.964 73.2162 186.711 74.1523 188.317C75.0884 189.924 76.3665 191.194 77.9822 192.127C79.6023 193.06 81.3591 193.524 83.2527 193.524C84.5906 193.524 85.9199 193.26 87.2365 192.732C87.3946 192.672 87.5485 192.642 87.7066 192.642C88.0572 192.642 88.3564 192.77 88.6043 193.022C88.8522 193.273 88.9762 193.571 88.9762 193.908C88.9762 194.172 88.9035 194.406 88.7582 194.611C88.6128 194.815 88.4205 194.965 88.1811 195.063C86.5996 195.689 84.9582 196 83.2527 196C81.4659 196 79.7604 195.659 78.1361 194.982C76.5118 194.304 75.1098 193.384 73.9343 192.229C72.7588 191.074 71.8227 189.698 71.126 188.104C70.4292 186.511 70.083 184.832 70.083 183.076C70.083 181.321 70.4292 179.642 71.126 178.048C71.8184 176.455 72.7546 175.079 73.9343 173.924C75.1098 172.769 76.5118 171.849 78.1361 171.163H78.1447ZM80.6367 185.825C81.3633 186.583 82.2353 186.962 83.2612 186.962C84.2871 186.962 85.1633 186.583 85.8857 185.825C86.6124 185.066 86.9714 184.15 86.9714 183.081C86.9714 182.011 86.6081 181.095 85.8857 180.337C85.1591 179.578 84.2871 179.199 83.2612 179.199C82.2353 179.199 81.3591 179.578 80.6367 180.337C79.91 181.095 79.551 182.011 79.551 183.081C79.551 184.15 79.9143 185.066 80.6367 185.825Z" fill="#F7F7F8"/>
<path d="M118.726 175.756C120.556 175.765 122.082 176.366 123.296 177.554C124.51 178.743 125.121 180.196 125.121 181.905V188.633C125.121 189.114 124.95 189.519 124.612 189.852C124.274 190.184 123.864 190.359 123.381 190.367C122.898 190.359 122.488 190.184 122.15 189.852C121.812 189.519 121.641 189.11 121.641 188.633V182.766C121.641 181.73 121.287 180.852 120.581 180.128C119.876 179.404 119.021 179.037 118.021 179.029C117.021 179.037 116.166 179.404 115.461 180.128C114.755 180.852 114.4 181.73 114.4 182.766V188.646C114.4 189.127 114.229 189.532 113.892 189.864C113.554 190.197 113.144 190.363 112.661 190.363C112.178 190.363 111.772 190.197 111.43 189.864C111.092 189.532 110.921 189.123 110.921 188.646V182.778C110.921 181.743 110.566 180.861 109.861 180.128C109.156 179.395 108.301 179.029 107.301 179.029C106.3 179.029 105.445 179.395 104.74 180.128C104.035 180.861 103.68 181.747 103.68 182.778V188.646C103.68 189.127 103.509 189.536 103.171 189.873C102.834 190.21 102.423 190.38 101.94 190.38C101.457 190.38 101.047 190.21 100.709 189.873C100.372 189.536 100.201 189.127 100.201 188.646V177.785C100.201 177.303 100.372 176.894 100.709 176.557C101.047 176.221 101.457 176.05 101.94 176.05C102.423 176.05 102.8 176.204 103.129 176.515C103.458 176.826 103.642 177.201 103.68 177.644C104.257 177.052 104.933 176.591 105.71 176.263C106.488 175.935 107.313 175.769 108.181 175.769C109.198 175.769 110.147 175.991 111.019 176.434C111.891 176.877 112.614 177.482 113.191 178.253C113.841 177.482 114.657 176.873 115.64 176.425C116.623 175.978 117.653 175.756 118.739 175.756H118.726Z" fill="#F7F7F8"/>
<path d="M135.281 175.756C135.781 175.756 136.205 175.927 136.547 176.272C136.893 176.617 137.064 177.035 137.064 177.533C137.064 177.976 136.918 178.364 136.624 178.696C136.333 179.029 135.974 179.229 135.546 179.297C134.482 179.459 133.589 179.932 132.871 180.72C132.152 181.509 131.793 182.582 131.793 183.937V188.65C131.793 189.132 131.622 189.541 131.285 189.877C130.947 190.214 130.537 190.384 130.054 190.384C129.571 190.384 129.16 190.214 128.823 189.877C128.485 189.541 128.314 189.132 128.314 188.65V177.789C128.314 177.307 128.485 176.898 128.823 176.562C129.16 176.225 129.571 176.055 130.054 176.055C130.477 176.055 130.849 176.187 131.169 176.451C131.49 176.715 131.687 177.047 131.763 177.452C132.281 176.937 132.849 176.523 133.469 176.217C134.084 175.91 134.687 175.756 135.273 175.756H135.281Z" fill="#F7F7F8"/>
<path d="M152.905 187.661C153.187 188.049 153.294 188.475 153.225 188.952C153.153 189.425 152.926 189.805 152.537 190.09C152.148 190.371 151.721 190.478 151.242 190.405C150.763 190.337 150.387 190.107 150.101 189.724L146.224 184.478L143.749 186.72V188.65C143.749 189.131 143.578 189.54 143.24 189.877C142.903 190.214 142.492 190.384 142.009 190.384C141.526 190.384 141.116 190.214 140.778 189.877C140.441 189.54 140.27 189.131 140.27 188.65V171.891C140.27 171.41 140.441 171.001 140.778 170.664C141.116 170.323 141.526 170.157 142.009 170.157C142.492 170.157 142.903 170.328 143.24 170.664C143.578 171.001 143.749 171.41 143.749 171.891V182.033L149.934 176.417C150.293 176.097 150.708 175.948 151.187 175.965C151.661 175.982 152.067 176.169 152.396 176.527C152.717 176.885 152.866 177.303 152.849 177.776C152.832 178.249 152.64 178.654 152.285 178.982L148.818 182.126L152.909 187.657L152.905 187.661Z" fill="#F7F7F8"/>
<path d="M164.874 187.184C165.382 187.052 165.848 187.15 166.276 187.478C166.703 187.806 166.912 188.237 166.912 188.761C166.912 189.127 166.801 189.455 166.579 189.749C166.357 190.039 166.07 190.239 165.724 190.342C164.733 190.644 163.741 190.755 162.745 190.678C161.749 190.602 160.877 190.329 160.12 189.86C158.697 188.965 157.983 187.589 157.983 185.727V179.463H156.329C155.876 179.463 155.491 179.306 155.171 178.982C154.85 178.662 154.688 178.279 154.688 177.827C154.688 177.376 154.846 176.992 155.171 176.672C155.491 176.353 155.876 176.191 156.329 176.191H157.983V173.566C157.983 173.089 158.154 172.68 158.492 172.339C158.829 172.002 159.24 171.832 159.723 171.832C160.206 171.832 160.616 172.002 160.954 172.339C161.292 172.68 161.463 173.089 161.463 173.566V176.191H164.365C164.818 176.191 165.203 176.349 165.523 176.672C165.844 176.992 166.006 177.376 166.006 177.827C166.006 178.279 165.848 178.662 165.523 178.982C165.203 179.302 164.818 179.463 164.365 179.463H161.463V185.331C161.463 186.196 161.698 186.771 162.172 187.052C162.796 187.427 163.694 187.47 164.874 187.18V187.184Z" fill="#F7F7F8"/>
<path d="M183.096 24.8031C183.006 24.6667 182.908 24.5389 182.796 24.4153L165.164 5.21968C162.117 1.90465 157.782 0 153.273 0H83.727C79.2175 0 74.8832 1.90039 71.8355 5.21968L54.2076 24.4153C54.0964 24.5346 54.0024 24.6625 53.9169 24.7946C47.8899 30.6491 45.0431 39.0432 46.287 47.4075C46.8213 50.9952 48.1763 54.4977 50.2066 57.604V124.45C50.2066 133.313 57.4391 140.522 66.3299 140.522H170.665C179.556 140.522 186.789 133.313 186.789 124.45V57.604C188.823 54.4935 190.178 50.9952 190.713 47.4075C191.957 39.0475 189.114 30.6577 183.096 24.8031ZM58.5119 28.638C58.747 28.4249 58.9351 28.1735 59.0847 27.9051L76.2339 9.23351C78.1531 7.14138 80.8845 5.94405 83.727 5.94405H153.273C156.115 5.94405 158.847 7.14138 160.766 9.23351L177.889 27.871C178.043 28.1522 178.244 28.4121 178.488 28.6337C183.519 33.2355 185.823 39.7591 184.818 46.5298C184.365 49.5721 183.143 52.542 181.275 55.1284C181.198 55.2392 181.117 55.3414 181.035 55.448C180.946 55.5673 180.856 55.6908 180.766 55.8101C180.612 56.0061 180.45 56.1979 180.279 56.4024L180.232 56.4621C180.112 56.6027 179.997 56.7475 179.873 56.8839C179.573 57.2163 179.266 57.5358 178.945 57.8426L178.804 57.9747C178.74 58.0386 178.672 58.0983 178.607 58.1579C178.351 58.3965 178.09 58.6266 177.825 58.8525C177.693 58.9632 177.56 59.074 177.428 59.1806C177.103 59.4362 176.774 59.6833 176.432 59.922C176.385 59.9518 176.342 59.9859 176.299 60.02C175.923 60.2799 175.534 60.527 175.141 60.7614C174.906 60.902 174.666 61.0298 174.427 61.1576C174.273 61.2429 174.119 61.3238 173.961 61.4005C173.675 61.5454 173.388 61.686 173.093 61.8181C173.063 61.8309 173.034 61.8437 173.004 61.8564C171.973 62.3124 170.905 62.6788 169.806 62.96C169.695 62.9856 169.584 63.0154 169.469 63.041C169.148 63.1177 168.823 63.1901 168.498 63.2498C168.101 63.3222 167.699 63.3861 167.284 63.4373C166.468 63.5353 165.652 63.5864 164.852 63.5864C158.44 63.5864 152.349 60.5057 148.554 55.3414C146.972 53.1939 144.403 51.9114 141.676 51.9114C139.291 51.9114 137.025 52.8956 135.44 54.5787C135.213 54.8216 134.999 55.073 134.803 55.3414C134.362 55.9422 133.888 56.5089 133.388 57.0501C133.221 57.2333 133.046 57.408 132.875 57.5827C132.58 57.881 132.276 58.1664 131.964 58.4434C130.494 59.7515 128.844 60.8338 127.07 61.6647C126.549 61.9076 126.019 62.1377 125.476 62.3379C123.266 63.1518 120.906 63.5864 118.504 63.5864C115.7 63.5864 112.956 62.9941 110.438 61.8991C107.202 60.4887 104.339 58.2431 102.206 55.3414C101.898 54.9239 101.543 54.5489 101.167 54.1995C99.611 52.755 97.525 51.9114 95.328 51.9114C92.6008 51.9114 90.0319 53.1939 88.4546 55.3414C84.6589 60.5015 78.5635 63.5864 72.156 63.5864C71.361 63.5864 70.5446 63.5353 69.7153 63.4373C69.6512 63.4287 69.5871 63.416 69.5187 63.4074C69.181 63.3648 68.8476 63.3137 68.5142 63.254C68.1851 63.1944 67.8602 63.122 67.5353 63.0453C67.4242 63.0197 67.3088 62.9899 67.1977 62.9643C66.1119 62.6873 65.0562 62.3252 64.0388 61.8778C63.9961 61.8564 63.9491 61.8394 63.9063 61.8224C63.6199 61.6945 63.3378 61.5539 63.0557 61.4133C62.8975 61.3323 62.7437 61.2514 62.5898 61.1662C62.3461 61.0341 62.1068 60.9063 61.8674 60.7656C61.4784 60.5313 61.0894 60.2884 60.7176 60.0285C60.6663 59.9944 60.6193 59.9561 60.568 59.922C60.2346 59.6876 59.9097 59.4447 59.5934 59.1933C59.4566 59.0826 59.3198 58.9718 59.183 58.8567C58.9137 58.6309 58.6573 58.4008 58.4051 58.1707C58.3538 58.1238 58.3025 58.077 58.2512 58.0301L58.0631 57.8554C57.7425 57.5443 57.4305 57.2205 57.1356 56.8924C57.0116 56.7561 56.8962 56.6069 56.7722 56.4663L56.7209 56.4067C56.5585 56.2149 56.3961 56.0189 56.2422 55.8229C56.1781 55.742 56.114 55.6525 56.0541 55.5715C55.9473 55.4309 55.8361 55.286 55.7293 55.1412C53.8656 52.559 52.6431 49.5891 52.19 46.5468C51.1812 39.7761 53.4894 33.2526 58.5205 28.6507L58.5119 28.638ZM100.214 94.1638H141.821C143.822 94.1638 145.061 94.705 145.061 97.3937V100.496C145.061 103.184 143.822 103.725 141.821 103.725H95.1741C92.6906 103.725 91.934 102.971 91.934 100.496V97.3937C91.934 94.918 92.6906 94.1638 95.1741 94.1638H100.214ZM103.458 88.2198L106.813 84.8579L110.186 88.2198H103.458ZM126.775 88.2198L130.139 84.8579L133.508 88.2198H126.775ZM105.967 134.578C98.2773 134.578 96.5077 132.814 96.5077 125.149V109.661H140.304V125.149C140.304 132.814 138.534 134.578 130.845 134.578H105.967ZM180.83 124.45C180.83 130.036 176.274 134.578 170.67 134.578H144.39C145.668 132.222 146.267 129.116 146.267 125.149V108.762C149.276 107.381 151.024 104.467 151.024 100.491V97.3894C151.024 91.7308 147.498 88.2198 141.826 88.2198H140.407C140.206 87.0651 139.667 85.953 138.774 85.0582L134.358 80.6566C132.037 78.3429 128.263 78.3429 125.946 80.6566L118.491 88.0877L111.037 80.6566C108.716 78.3429 104.941 78.3429 102.624 80.6566L98.2089 85.0582C97.3113 85.953 96.777 87.0608 96.5761 88.2198H95.1869C89.4249 88.2198 85.9882 91.6499 85.9882 97.3894V100.491C85.9882 104.467 87.6382 107.326 90.5576 108.715V125.149C90.5576 129.116 91.1561 132.222 92.4341 134.578H66.3428C60.7389 134.578 56.1824 130.036 56.1824 124.45V64.0721C56.3448 64.2 56.52 64.3065 56.6867 64.4301C56.9988 64.6602 57.3151 64.886 57.6357 65.1033C57.8665 65.2567 58.1016 65.4058 58.3367 65.5507C58.529 65.67 58.7128 65.8021 58.9052 65.9129L59.3497 66.1643C59.4395 66.2154 59.5335 66.258 59.6233 66.3092C59.7473 66.3773 59.8755 66.4412 59.9995 66.5094C60.2046 66.616 60.4098 66.731 60.615 66.8333L60.7432 66.8972C60.8715 66.9611 60.9954 67.025 61.1194 67.0804C61.2647 67.1486 61.4186 67.204 61.5682 67.2721C61.6665 67.3147 61.7605 67.3531 61.8589 67.3957C62.1623 67.5278 62.4616 67.6641 62.7736 67.7877C62.936 67.8516 63.1027 67.907 63.2694 67.9667L63.449 68.0263C63.5045 68.0434 63.5601 68.0604 63.6114 68.0817C63.6627 68.0988 63.7182 68.1158 63.7695 68.1328C64.0175 68.2181 64.2697 68.3033 64.5218 68.3842C64.8125 68.4737 65.1074 68.559 65.4067 68.6357C65.4879 68.657 65.5691 68.674 65.646 68.6953C65.7187 68.7123 65.7914 68.7294 65.864 68.7464C66.0393 68.789 66.2145 68.8359 66.3941 68.8743L66.5821 68.9169C66.8044 68.968 67.0267 69.0191 67.2575 69.0617C67.3857 69.0873 67.5182 69.1001 67.6508 69.1214C67.8346 69.1555 68.0184 69.1768 68.2022 69.2066C68.4715 69.2492 68.7407 69.3004 69.01 69.3302C69.2195 69.3557 69.4247 69.3643 69.6341 69.3856C69.8307 69.4069 70.0316 69.4239 70.2283 69.441C70.8737 69.4878 71.5192 69.5219 72.156 69.5219C80.4571 69.5219 88.3477 65.5337 93.2634 58.8482C93.3788 58.6906 93.5156 58.5457 93.6652 58.4221C94.114 58.0514 94.6953 57.8469 95.3322 57.8469C96.1786 57.8469 96.9309 58.2133 97.4011 58.8482C102.317 65.5294 110.203 69.5219 118.508 69.5219C124.176 69.5219 129.648 67.6599 134.114 64.3576C136.192 62.8194 138.056 60.9702 139.616 58.8482C139.8 58.5968 140.039 58.4008 140.3 58.2431C140.701 57.996 141.172 57.8469 141.68 57.8469C142.527 57.8469 143.279 58.2133 143.749 58.8482C148.665 65.5294 156.555 69.5219 164.856 69.5219C165.493 69.5219 166.139 69.4878 166.784 69.441C166.985 69.4282 167.182 69.4069 167.378 69.3856C167.584 69.3643 167.789 69.3557 167.99 69.3302C168.259 69.3004 168.528 69.2492 168.793 69.2066C168.981 69.1768 169.169 69.1512 169.357 69.1214C169.49 69.1001 169.623 69.0873 169.751 69.0617C169.977 69.0191 170.2 68.968 170.422 68.9169L170.614 68.8743C170.789 68.8359 170.965 68.789 171.14 68.7464C171.213 68.7294 171.29 68.7123 171.362 68.691C171.443 68.6697 171.52 68.6527 171.602 68.6314C171.897 68.5547 172.191 68.4695 172.486 68.38C172.743 68.3033 172.991 68.2138 173.243 68.1286C173.294 68.1115 173.341 68.0945 173.393 68.0775C173.448 68.0604 173.504 68.0434 173.555 68.0221L173.735 67.9624C173.901 67.907 174.072 67.8474 174.239 67.7835C174.555 67.6641 174.859 67.5235 175.166 67.3872C175.256 67.3488 175.346 67.3147 175.432 67.2721C175.581 67.204 175.739 67.1486 175.885 67.0804C176.013 67.0207 176.141 66.9568 176.269 66.8929L176.398 66.829C176.663 66.6969 176.932 66.5563 177.21 66.4114C177.24 66.3944 177.274 66.3773 177.304 66.3603C177.445 66.2836 177.582 66.2112 177.731 66.1259C177.859 66.0535 177.988 65.9811 178.112 65.9086C178.304 65.7936 178.488 65.6657 178.676 65.5464C178.915 65.3973 179.15 65.2482 179.385 65.0948C179.702 64.8817 180.014 64.6602 180.322 64.4343C180.492 64.3108 180.672 64.2 180.839 64.0679V124.446L180.83 124.45Z" fill="#F7F7F8"/>
<path d="M153.917 140.103V134.897C153.917 131.82 156.431 129.276 159.537 129.276C164.892 129.276 167.081 125.489 164.389 120.845C162.851 118.182 163.768 114.721 166.46 113.183L171.578 110.254C173.915 108.863 176.932 109.692 178.323 112.029L178.648 112.591C181.311 117.235 185.689 117.235 188.381 112.591L188.707 112.029C190.097 109.692 193.114 108.863 195.452 110.254L200.569 113.183C203.262 114.721 204.179 118.182 202.64 120.845C199.948 125.489 202.137 129.276 207.492 129.276C210.569 129.276 213.113 131.79 213.113 134.897V140.103C213.113 143.18 210.598 145.724 207.492 145.724C202.137 145.724 199.948 149.511 202.64 154.155C204.179 156.848 203.262 160.279 200.569 161.818L195.452 164.746C193.114 166.137 190.097 165.308 188.707 162.971L188.381 162.409C185.719 157.765 181.34 157.765 178.648 162.409L178.323 162.971C176.932 165.308 173.915 166.137 171.578 164.746L166.46 161.818C163.768 160.279 162.851 156.818 164.389 154.155C167.081 149.511 164.892 145.724 159.537 145.724C156.431 145.724 153.917 143.18 153.917 140.103Z" fill="#101010" stroke="#F7F7F8" stroke-width="5" stroke-miterlimit="10" stroke-linecap="round" stroke-linejoin="round"/>
<path d="M183.5 146.375C188.402 146.375 192.375 142.402 192.375 137.5C192.375 132.598 188.402 128.625 183.5 128.625C178.598 128.625 174.625 132.598 174.625 137.5C174.625 142.402 178.598 146.375 183.5 146.375Z" stroke="#F7F7F8" stroke-width="5" stroke-miterlimit="10" stroke-linecap="round" stroke-linejoin="round"/>
</svg>
